<svg xmlns="http://www.w3.org/2000/svg" xmlns:xlink="http://www.w3.org/1999/xlink" width="1080" zoomAndPan="magnify" viewBox="0 0 810 809.999993" height="1080" preserveAspectRatio="xMidYMid meet" version="1.0"><defs><g/><clipPath id="0255aafd77"><path d="M 148.488281 157.511719 L 645.125 157.511719 L 645.125 654.144531 L 148.488281 654.144531 Z M 148.488281 157.511719 " clip-rule="nonzero"/></clipPath><clipPath id="f284d56698"><path d="M 396.804688 157.511719 C 259.664062 157.511719 148.488281 268.6875 148.488281 405.828125 C 148.488281 542.96875 259.664062 654.144531 396.804688 654.144531 C 533.949219 654.144531 645.125 542.96875 645.125 405.828125 C 645.125 268.6875 533.949219 157.511719 396.804688 157.511719 Z M 396.804688 157.511719 " clip-rule="nonzero"/></clipPath></defs><g clip-path="url(#0255aafd77)"><g clip-path="url(#f284d56698)"><path fill="#e1e1e1" d="M 148.488281 157.511719 L 645.125 157.511719 L 645.125 654.144531 L 148.488281 654.144531 Z M 148.488281 157.511719 " fill-opacity="1" fill-rule="nonzero"/></g></g><g fill="#000000" fill-opacity="1"><g transform="translate(324.523993, 554.846473)"><g><path d="M 40.8125 -251.75 C 55.675781 -257.925781 69.96875 -261.015625 83.6875 -261.015625 C 95.125 -261.015625 106.898438 -256.785156 119.015625 -248.328125 C 125.648438 -243.753906 133.082031 -234.832031 141.3125 -221.5625 C 146.800781 -212.414062 153.773438 -195.835938 162.234375 -171.828125 L 204.078125 -53.15625 C 213.679688 -26.632812 223.457031 -5.546875 233.40625 10.109375 C 243.351562 25.773438 252.441406 37.550781 260.671875 45.4375 C 268.898438 53.332031 277.472656 58.878906 286.390625 62.078125 C 295.304688 65.273438 302.679688 66.875 308.515625 66.875 C 314.347656 66.875 319.550781 66.421875 324.125 65.515625 L 324.46875 68.9375 C 313.488281 72.59375 302.738281 74.421875 292.21875 74.421875 C 281.707031 74.421875 271.191406 71.734375 260.671875 66.359375 C 250.148438 60.992188 240.316406 53.507812 231.171875 43.90625 C 211.503906 24.007812 194.8125 -6.285156 181.09375 -46.984375 L 167.71875 -86.09375 L 73.75 -86.09375 L 50.078125 -25.03125 C 48.929688 -22.289062 48.359375 -19.546875 48.359375 -16.796875 C 48.359375 -14.054688 49.554688 -11.144531 51.953125 -8.0625 C 54.359375 -4.976562 58.078125 -3.4375 63.109375 -3.4375 L 65.859375 -3.4375 L 65.859375 0 L -3.09375 0 L -3.09375 -3.4375 L 0 -3.4375 C 5.488281 -3.4375 10.863281 -5.09375 16.125 -8.40625 C 21.382812 -11.71875 25.726562 -16.691406 29.15625 -23.328125 L 114.21875 -227.0625 C 101.863281 -244.664062 86.539062 -253.46875 68.25 -253.46875 C 60.019531 -253.46875 51.21875 -251.753906 41.84375 -248.328125 Z M 77.515625 -96.375 L 164.296875 -96.375 L 137.1875 -176.296875 C 131.9375 -191.617188 127.140625 -203.625 122.796875 -212.3125 Z M 77.515625 -96.375 "/></g></g></g><g fill="#000000" fill-opacity="1"><g transform="translate(219.435317, 487.346462)"><g><path d="M 120.734375 -245.578125 C 140.617188 -245.578125 157.195312 -240.773438 170.46875 -231.171875 C 188.300781 -218.367188 197.21875 -198.363281 197.21875 -171.15625 C 197.21875 -151.488281 191.726562 -134.679688 180.75 -120.734375 C 168.863281 -105.867188 152.285156 -98.4375 131.015625 -98.4375 C 119.816406 -98.4375 109.644531 -101.125 100.5 -106.5 C 91.351562 -111.875 85.976562 -121.078125 84.375 -134.109375 L 87.46875 -135.140625 C 89.976562 -125.304688 95.804688 -118.445312 104.953125 -114.5625 C 111.128906 -111.8125 116.617188 -110.4375 121.421875 -110.4375 C 140.171875 -110.4375 153.773438 -117.753906 162.234375 -132.390625 C 168.410156 -143.140625 171.5 -155.945312 171.5 -170.8125 C 171.5 -194.59375 164.863281 -211.738281 151.59375 -222.25 C 141.53125 -230.476562 128.726562 -234.59375 113.1875 -234.59375 C 109.53125 -234.59375 106.382812 -234.421875 103.75 -234.078125 C 101.125 -233.742188 89.632812 -231.859375 69.28125 -228.421875 L 69.28125 -25.03125 C 69.507812 -18.863281 71.796875 -13.722656 76.140625 -9.609375 C 80.484375 -5.492188 85.515625 -3.4375 91.234375 -3.4375 L 95.6875 -3.4375 L 95.6875 0 L 20.578125 0 L 20.578125 -3.4375 L 25.03125 -3.4375 C 30.75 -3.4375 35.78125 -5.492188 40.125 -9.609375 C 44.46875 -13.722656 46.753906 -18.863281 46.984375 -25.03125 L 46.984375 -210.59375 C 46.984375 -216.539062 45.269531 -221.171875 41.84375 -224.484375 C 38.414062 -227.796875 33.957031 -229.453125 28.46875 -229.453125 C 27.320312 -229.453125 26.175781 -229.335938 25.03125 -229.109375 L 20.921875 -228.765625 L 20.234375 -232.203125 C 32.128906 -233.347656 48.078125 -235.578125 68.078125 -238.890625 C 88.085938 -242.203125 100.492188 -244.144531 105.296875 -244.71875 C 110.097656 -245.289062 115.242188 -245.578125 120.734375 -245.578125 Z M 120.734375 -245.578125 "/></g></g></g><path fill="#e1e1e1" d="M 201.582031 387.714844 L 592.023438 387.714844 C 594.316406 387.714844 596.515625 388.625 598.136719 390.246094 C 599.757812 391.867188 600.667969 394.0625 600.667969 396.355469 L 600.667969 413.644531 C 600.667969 415.9375 599.757812 418.132812 598.136719 419.753906 C 596.515625 421.375 594.316406 422.289062 592.023438 422.289062 L 201.582031 422.289062 C 196.808594 422.289062 192.941406 418.417969 192.941406 413.644531 L 192.941406 396.355469 C 192.941406 391.582031 196.808594 387.714844 201.582031 387.714844 Z M 201.582031 387.714844 " fill-opacity="1" fill-rule="nonzero"/><g fill="#000000" fill-opacity="1"><g transform="translate(209.826383, 411.480001)"><g><path d="M 4.328125 0 L 1.578125 0 L 1.578125 -15.359375 L 6.984375 -15.359375 C 8.972656 -15.359375 10.492188 -14.953125 11.546875 -14.140625 C 12.597656 -13.335938 13.125 -12.171875 13.125 -10.640625 C 13.125 -9.097656 12.550781 -7.890625 11.40625 -7.015625 C 10.269531 -6.140625 8.613281 -5.703125 6.4375 -5.703125 L 4.328125 -5.703125 Z M 6.875 -13.0625 L 4.328125 -13.0625 L 4.328125 -8.015625 L 6.59375 -8.015625 C 7.894531 -8.015625 8.835938 -8.222656 9.421875 -8.640625 C 10.015625 -9.066406 10.3125 -9.71875 10.3125 -10.59375 C 10.3125 -11.476562 10.035156 -12.109375 9.484375 -12.484375 C 8.929688 -12.867188 8.0625 -13.0625 6.875 -13.0625 Z M 6.875 -13.0625 "/></g></g></g><g fill="#000000" fill-opacity="1"><g transform="translate(239.780057, 411.480001)"><g><path d="M -0.21875 0 L 6.34375 -15.359375 L 8.71875 -15.359375 L 15 0 L 12.15625 0 L 10.765625 -3.5 L 4.0625 -3.5 L 2.640625 0 Z M 5.03125 -5.859375 L 9.859375 -5.859375 L 7.484375 -11.890625 Z M 5.03125 -5.859375 "/></g></g></g><g fill="#000000" fill-opacity="1"><g transform="translate(271.117216, 411.480001)"><g><path d="M 11.78125 -15.359375 L 14.578125 -15.359375 L 14.59375 -7.171875 C 14.613281 -5.648438 14.363281 -4.335938 13.84375 -3.234375 C 13.332031 -2.128906 12.585938 -1.28125 11.609375 -0.6875 C 10.640625 -0.101562 9.472656 0.1875 8.109375 0.1875 C 5.921875 0.1875 4.273438 -0.359375 3.171875 -1.453125 C 2.066406 -2.554688 1.515625 -4.242188 1.515625 -6.515625 L 1.515625 -15.359375 L 4.328125 -15.359375 L 4.328125 -6.71875 C 4.328125 -5.175781 4.640625 -4.054688 5.265625 -3.359375 C 5.890625 -2.671875 6.820312 -2.328125 8.0625 -2.328125 C 9.320312 -2.328125 10.265625 -2.726562 10.890625 -3.53125 C 11.515625 -4.34375 11.820312 -5.601562 11.8125 -7.3125 Z M 11.78125 -15.359375 "/></g></g></g><g fill="#000000" fill-opacity="1"><g transform="translate(303.686556, 411.480001)"><g><path d="M 1.578125 0 L 1.578125 -15.359375 L 4.390625 -15.359375 L 4.390625 -2.46875 L 11.21875 -2.46875 L 11.03125 0 Z M 1.578125 0 "/></g></g></g><g fill="#000000" fill-opacity="1"><g transform="translate(331.262362, 411.480001)"><g><path d="M 8.40625 0.1875 C 6.851562 0.207031 5.519531 -0.078125 4.40625 -0.671875 C 3.300781 -1.273438 2.453125 -2.144531 1.859375 -3.28125 C 1.265625 -4.425781 0.96875 -5.796875 0.96875 -7.390625 C 0.96875 -8.992188 1.285156 -10.410156 1.921875 -11.640625 C 2.554688 -12.878906 3.453125 -13.84375 4.609375 -14.53125 C 5.773438 -15.21875 7.148438 -15.5625 8.734375 -15.5625 C 10.148438 -15.5625 11.390625 -15.242188 12.453125 -14.609375 C 13.523438 -13.984375 14.351562 -13.101562 14.9375 -11.96875 C 15.53125 -10.832031 15.828125 -9.503906 15.828125 -7.984375 C 15.828125 -6.328125 15.503906 -4.890625 14.859375 -3.671875 C 14.222656 -2.453125 13.34375 -1.503906 12.21875 -0.828125 C 11.101562 -0.148438 9.832031 0.1875 8.40625 0.1875 Z M 8.328125 -2.328125 C 9.234375 -2.328125 10.035156 -2.550781 10.734375 -3 C 11.429688 -3.445312 11.976562 -4.085938 12.375 -4.921875 C 12.769531 -5.765625 12.96875 -6.785156 12.96875 -7.984375 C 12.96875 -9.523438 12.578125 -10.753906 11.796875 -11.671875 C 11.023438 -12.597656 9.984375 -13.0625 8.671875 -13.0625 C 7.734375 -13.0625 6.898438 -12.820312 6.171875 -12.34375 C 5.441406 -11.875 4.867188 -11.21875 4.453125 -10.375 C 4.035156 -9.539062 3.828125 -8.5625 3.828125 -7.4375 C 3.828125 -5.8125 4.226562 -4.550781 5.03125 -3.65625 C 5.832031 -2.769531 6.929688 -2.328125 8.328125 -2.328125 Z M 8.328125 -2.328125 "/></g></g></g><g fill="#000000" fill-opacity="1"><g transform="translate(364.523444, 411.480001)"><g/></g></g><g fill="#000000" fill-opacity="1"><g transform="translate(386.241063, 411.480001)"><g><path d="M -0.21875 0 L 6.34375 -15.359375 L 8.71875 -15.359375 L 15 0 L 12.15625 0 L 10.765625 -3.5 L 4.0625 -3.5 L 2.640625 0 Z M 5.03125 -5.859375 L 9.859375 -5.859375 L 7.484375 -11.890625 Z M 5.03125 -5.859375 "/></g></g></g><g fill="#000000" fill-opacity="1"><g transform="translate(417.578235, 411.480001)"><g><path d="M 11.671875 -15.359375 L 14.375 -15.359375 L 14.375 0 L 11.921875 0 L 4.28125 -10.703125 L 4.28125 0 L 1.578125 0 L 1.578125 -15.359375 L 4.046875 -15.359375 L 11.671875 -4.65625 Z M 11.671875 -15.359375 "/></g></g></g><g fill="#000000" fill-opacity="1"><g transform="translate(449.996231, 411.480001)"><g><path d="M 12.71875 -15.359375 L 12.375 -12.890625 L 7.609375 -12.890625 L 7.609375 0 L 4.796875 0 L 4.796875 -12.890625 L -0.125 -12.890625 L -0.125 -15.359375 Z M 12.71875 -15.359375 "/></g></g></g><g fill="#000000" fill-opacity="1"><g transform="translate(478.869043, 411.480001)"><g><path d="M 8.40625 0.1875 C 6.851562 0.207031 5.519531 -0.078125 4.40625 -0.671875 C 3.300781 -1.273438 2.453125 -2.144531 1.859375 -3.28125 C 1.265625 -4.425781 0.96875 -5.796875 0.96875 -7.390625 C 0.96875 -8.992188 1.285156 -10.410156 1.921875 -11.640625 C 2.554688 -12.878906 3.453125 -13.84375 4.609375 -14.53125 C 5.773438 -15.21875 7.148438 -15.5625 8.734375 -15.5625 C 10.148438 -15.5625 11.390625 -15.242188 12.453125 -14.609375 C 13.523438 -13.984375 14.351562 -13.101562 14.9375 -11.96875 C 15.53125 -10.832031 15.828125 -9.503906 15.828125 -7.984375 C 15.828125 -6.328125 15.503906 -4.890625 14.859375 -3.671875 C 14.222656 -2.453125 13.34375 -1.503906 12.21875 -0.828125 C 11.101562 -0.148438 9.832031 0.1875 8.40625 0.1875 Z M 8.328125 -2.328125 C 9.234375 -2.328125 10.035156 -2.550781 10.734375 -3 C 11.429688 -3.445312 11.976562 -4.085938 12.375 -4.921875 C 12.769531 -5.765625 12.96875 -6.785156 12.96875 -7.984375 C 12.96875 -9.523438 12.578125 -10.753906 11.796875 -11.671875 C 11.023438 -12.597656 9.984375 -13.0625 8.671875 -13.0625 C 7.734375 -13.0625 6.898438 -12.820312 6.171875 -12.34375 C 5.441406 -11.875 4.867188 -11.21875 4.453125 -10.375 C 4.035156 -9.539062 3.828125 -8.5625 3.828125 -7.4375 C 3.828125 -5.8125 4.226562 -4.550781 5.03125 -3.65625 C 5.832031 -2.769531 6.929688 -2.328125 8.328125 -2.328125 Z M 8.328125 -2.328125 "/></g></g></g><g fill="#000000" fill-opacity="1"><g transform="translate(512.130114, 411.480001)"><g><path d="M 11.671875 -15.359375 L 14.375 -15.359375 L 14.375 0 L 11.921875 0 L 4.28125 -10.703125 L 4.28125 0 L 1.578125 0 L 1.578125 -15.359375 L 4.046875 -15.359375 L 11.671875 -4.65625 Z M 11.671875 -15.359375 "/></g></g></g><g fill="#000000" fill-opacity="1"><g transform="translate(544.54811, 411.480001)"><g><path d="M 1.578125 0 L 1.578125 -15.359375 L 4.390625 -15.359375 L 4.390625 0 Z M 1.578125 0 "/></g></g></g><g fill="#000000" fill-opacity="1"><g transform="translate(566.979089, 411.480001)"><g><path d="M 8.40625 0.1875 C 6.851562 0.207031 5.519531 -0.078125 4.40625 -0.671875 C 3.300781 -1.273438 2.453125 -2.144531 1.859375 -3.28125 C 1.265625 -4.425781 0.96875 -5.796875 0.96875 -7.390625 C 0.96875 -8.992188 1.285156 -10.410156 1.921875 -11.640625 C 2.554688 -12.878906 3.453125 -13.84375 4.609375 -14.53125 C 5.773438 -15.21875 7.148438 -15.5625 8.734375 -15.5625 C 10.148438 -15.5625 11.390625 -15.242188 12.453125 -14.609375 C 13.523438 -13.984375 14.351562 -13.101562 14.9375 -11.96875 C 15.53125 -10.832031 15.828125 -9.503906 15.828125 -7.984375 C 15.828125 -6.328125 15.503906 -4.890625 14.859375 -3.671875 C 14.222656 -2.453125 13.34375 -1.503906 12.21875 -0.828125 C 11.101562 -0.148438 9.832031 0.1875 8.40625 0.1875 Z M 8.328125 -2.328125 C 9.234375 -2.328125 10.035156 -2.550781 10.734375 -3 C 11.429688 -3.445312 11.976562 -4.085938 12.375 -4.921875 C 12.769531 -5.765625 12.96875 -6.785156 12.96875 -7.984375 C 12.96875 -9.523438 12.578125 -10.753906 11.796875 -11.671875 C 11.023438 -12.597656 9.984375 -13.0625 8.671875 -13.0625 C 7.734375 -13.0625 6.898438 -12.820312 6.171875 -12.34375 C 5.441406 -11.875 4.867188 -11.21875 4.453125 -10.375 C 4.035156 -9.539062 3.828125 -8.5625 3.828125 -7.4375 C 3.828125 -5.8125 4.226562 -4.550781 5.03125 -3.65625 C 5.832031 -2.769531 6.929688 -2.328125 8.328125 -2.328125 Z M 8.328125 -2.328125 "/></g></g></g></svg>